<?xml version="1.0" encoding="UTF-8" standalone="no"?>
<svg
   xmlns:dc="http://purl.org/dc/elements/1.1/"
   xmlns:cc="http://creativecommons.org/ns#"
   xmlns:rdf="http://www.w3.org/1999/02/22-rdf-syntax-ns#"
   xmlns:svg="http://www.w3.org/2000/svg"
   xmlns="http://www.w3.org/2000/svg"
   viewBox="0 0 207.28 192"
   height="192"
   width="207.28"
   xml:space="preserve"
   id="svg2"
   version="1.1"><metadata
     id="metadata8"><rdf:RDF><cc:Work
         rdf:about=""><dc:format>image/svg+xml</dc:format><dc:type
           rdf:resource="http://purl.org/dc/dcmitype/StillImage" /></cc:Work></rdf:RDF></metadata><defs
     id="defs6" /><g
     transform="matrix(1.3333333,0,0,-1.3333333,0,192)"
     id="g10"><g
       transform="scale(0.1)"
       id="g12"><path
         id="path14"
         style="fill:#18679e;fill-opacity:1;fill-rule:nonzero;stroke:none"
         d="M 1333.44,1440 H 106.289 C 47.6484,1440 0,1393.52 0,1336.23 V 103.891 C 0,46.5508 47.6484,0 106.289,0 H 1333.44 c 58.75,0 106.6,46.5508 106.6,103.891 V 1336.23 c 0,57.29 -47.85,103.77 -106.6,103.77" /><path
         id="path16"
         style="fill:#ffffff;fill-opacity:1;fill-rule:nonzero;stroke:none"
         d="m 320.344,1241.74 c 68.277,0 123.777,-55.49 123.777,-123.79 0,-68.37 -55.5,-123.864 -123.777,-123.864 -68.457,0 -123.86,55.494 -123.86,123.864 0,68.3 55.403,123.79 123.86,123.79 M 213.496,900.145 H 427.09 V 212.93 H 213.496 v 687.215" /><path
         id="path18"
         style="fill:#ffffff;fill-opacity:1;fill-rule:nonzero;stroke:none"
         d="m 561.063,900.145 h 204.843 v -93.907 h 2.864 c 28.511,54.035 98.187,110.992 202.093,110.992 216.287,0 256.217,-142.335 256.217,-327.343 V 212.93 h -213.44 v 334.203 c 0,79.687 -1.47,182.191 -110.988,182.191 -111.125,0 -128.187,-86.801 -128.187,-176.429 V 212.93 H 561.063 v 687.215" /><path
         id="path20"
         style="fill:#231f20;fill-opacity:1;fill-rule:nonzero;stroke:none"
         d="m 1475.12,249.109 h 11.61 V 212.93 h 6.31 v 36.179 h 11.58 v 6.313 h -29.5 v -6.313" /><path
         id="path22"
         style="fill:#231f20;fill-opacity:1;fill-rule:nonzero;stroke:none"
         d="m 1545.65,255.422 -12.39,-31.192 -12.39,31.192 h -8.98 V 212.93 h 6.28 v 32.332 l 13,-32.332 h 4.19 l 12.99,32.332 V 212.93 h 6.28 v 42.492 h -8.98" /></g></g></svg>