<?xml version="1.0" encoding="UTF-8"?>
<svg xmlns="http://www.w3.org/2000/svg" viewBox="0 0 192 192">
  <path class="svg-foreground" d="M 1333.44,1440 H 106.289 C 47.6484,1440 0,1393.52 0,1336.23 V 103.891 C 0,46.5508 47.6484,0 106.289,0 H 1333.44 c 58.75,0 106.6,46.5508 106.6,103.891 V 1336.23 c 0,57.29 -47.85,103.77 -106.6,103.77" fill="#18679e" transform="matrix(.13333 0 0 -.13333 0 192)" />
  <path class="svg-background" d="M320.344 1241.74c68.277 0 123.777-55.49 123.777-123.79 0-68.37-55.5-123.864-123.777-123.864-68.457 0-123.86 55.494-123.86 123.864 0 68.3 55.403 123.79 123.86 123.79M213.496 900.145H427.09V212.93H213.496v687.215M561.063 900.145h204.843v-93.907h2.864c28.511 54.035 98.187 110.992 202.093 110.992 216.287 0 256.217-142.335 256.217-327.343V212.93h-213.44v334.203c0 79.687-1.47 182.191-110.988 182.191-111.125 0-128.187-86.801-128.187-176.429V212.93H561.063v687.215" fill="#fff" transform="matrix(.13333 0 0 -.13333 0 192)" />
  <path d="M1475.12 249.109h11.61V212.93h6.31v36.179h11.58v6.313h-29.5v-6.313M1545.65 255.422l-12.39-31.192-12.39 31.192h-8.98V212.93h6.28v32.332l13-32.332h4.19l12.99 32.332V212.93h6.28v42.492h-8.98" fill="#231f20" transform="matrix(.13333 0 0 -.13333 0 192)" />
</svg>